<svg width="45" height="45" viewBox="0 0 45 45" fill="none" xmlns="http://www.w3.org/2000/svg">
<path d="M41.5 45L25.75 29.25C24.5 30.25 23.0625 31.0417 21.4375 31.625C19.8125 32.2083 18.0833 32.5 16.25 32.5C11.7083 32.5 7.865 30.9267 4.72 27.78C1.575 24.6333 0.00166799 20.79 1.32275e-06 16.25C-0.00166534 11.71 1.57167 7.86667 4.72 4.72C7.86833 1.57333 11.7117 0 16.25 0C20.7883 0 24.6325 1.57333 27.7825 4.72C30.9325 7.86667 32.505 11.71 32.5 16.25C32.5 18.0833 32.2083 19.8125 31.625 21.4375C31.0417 23.0625 30.25 24.5 29.25 25.75L45 41.5L41.5 45ZM16.25 27.5C19.375 27.5 22.0317 26.4067 24.22 24.22C26.4083 22.0333 27.5017 19.3767 27.5 16.25C27.4983 13.1233 26.405 10.4675 24.22 8.2825C22.035 6.0975 19.3783 5.00333 16.25 5C13.1217 4.99667 10.4658 6.09083 8.2825 8.2825C6.09917 10.4742 5.005 13.13 5 16.25C4.995 19.37 6.08917 22.0267 8.2825 24.22C10.4758 26.4133 13.1317 27.5067 16.25 27.5Z" fill="#989C9A"/>
</svg>
